<?xml version="1.0" encoding="utf-8"?>
<!-- Generator: Adobe Illustrator 26.5.0, SVG Export Plug-In . SVG Version: 6.00 Build 0)  -->
<svg version="1.1" xmlns="http://www.w3.org/2000/svg" xmlns:xlink="http://www.w3.org/1999/xlink" x="0px" y="0px"
	 viewBox="0 0 765 956.6" style="enable-background:new 0 0 765 956.6;" xml:space="preserve">
<style type="text/css">
	.st0{fill:#F6DEB0;}
	.st1{fill:#971132;}
	.st2{fill:#3D5C30;}
	.st3{fill:#3F3D56;}
	.st4{fill:#E45932;}
	.st5{fill:#98251E;}
	.st6{fill:#E5AE6B;}
	.st7{fill:#3C1007;}
	.st8{fill:#EFA55A;}
	.st9{fill:#652410;}
	.st10{fill:#845040;}
	.st11{fill:#E6323D;}
	.st12{fill:#183636;}
	.st13{fill:#EB8E31;}
	.st14{fill:#E87536;}
	.st15{fill:none;stroke:#E45932;stroke-linecap:round;stroke-miterlimit:10;}
	.st16{fill:#8E7F18;}
	.st17{fill:none;stroke:#7D8844;stroke-linecap:round;stroke-miterlimit:10;}
	.st18{fill:#7D8844;}
	.st19{fill:#55ACEE;}
	.st20{fill:#F1F2F2;}
	.st21{fill-rule:evenodd;clip-rule:evenodd;}
	.st22{fill:none;}
	.st23{fill:#FFFFFF;}
	.st24{fill:#EA4335;}
	.st25{fill:#34A853;}
	.st26{fill:#4A90E2;}
	.st27{fill:#FBBC05;}
	.st28{fill:#0E76A8;}
	.st29{fill-rule:evenodd;clip-rule:evenodd;fill:#EFA55A;}
	.st30{fill-rule:evenodd;clip-rule:evenodd;fill:#E6323D;}
	.st31{fill-rule:evenodd;clip-rule:evenodd;fill:#652410;}
	.st32{fill-rule:evenodd;clip-rule:evenodd;fill:#E45932;}
	.st33{fill-rule:evenodd;clip-rule:evenodd;fill:#3D5C30;}
	.st34{fill-rule:evenodd;clip-rule:evenodd;fill:#971132;}
	.st35{fill-rule:evenodd;clip-rule:evenodd;fill:#EF6A6A;}
	.st36{fill:#F3EBDD;}
	.st37{opacity:0.49;fill:#F3EBDD;}
	.st38{fill:#7D5642;}
	.st39{fill:#A0D39F;}
	.st40{fill:#F8E5C0;}
	.st41{fill:#EECC6E;}
	.st42{fill:#5CA1C4;}
	.st43{fill:#1F4256;}
	.st44{fill:#EA7780;}
	.st45{fill:#E6E6E6;}
	.st46{fill:#FFB6B6;}
	.st47{fill:#2F2E41;}
	.st48{fill:#506D2F;}
	.st49{fill:url(#SVGID_1_);}
	.st50{fill:url(#SVGID_00000182494873713070151650000008113944351216394663_);}
	.st51{fill:url(#SVGID_00000015341276982838317360000007675931152266355631_);}
	.st52{fill:#F5C99C;}
	.st53{fill:#656478;}
	.st54{fill:url(#SVGID_00000031892528213451605770000004338820685428317629_);}
	.st55{fill:url(#SVGID_00000045609371360943698400000004412310673594087588_);}
	.st56{fill:url(#SVGID_00000083775331656483217970000016012475554018824084_);}
	.st57{fill:url(#SVGID_00000183238222990783758380000011103599230419619994_);}
	.st58{fill:url(#SVGID_00000162310287916836643980000008245369468354606225_);}
	.st59{fill:url(#SVGID_00000085932256852835893460000004072127994428255160_);}
	.st60{fill:url(#SVGID_00000036939606675730873960000008335327778897637006_);}
	.st61{fill:none;stroke:#3F3D56;stroke-miterlimit:10;}
	.st62{fill:url(#SVGID_00000010313074079327709800000007856657513591175566_);}
	.st63{fill:url(#SVGID_00000067947953329869173870000000307514982763382188_);}
	.st64{fill:url(#SVGID_00000183965631271721622880000004084520056257737887_);}
	.st65{fill:url(#SVGID_00000152984241033357501500000007445208020964785035_);}
	.st66{fill:url(#SVGID_00000057857439417784237240000012800896551688085431_);}
	.st67{fill:url(#SVGID_00000158721648196426409000000005399728361416876949_);}
	.st68{fill:url(#SVGID_00000020366154375473929180000009879621883776138910_);}
	.st69{fill:url(#SVGID_00000080922705810228814980000003362657723989357720_);}
	.st70{fill:url(#SVGID_00000061466868966099334930000001099507233932465557_);}
	.st71{fill:url(#SVGID_00000124157636338550264330000016743173268352381072_);}
	.st72{fill:url(#SVGID_00000132054284394298233200000004668473637270552494_);}
	.st73{fill:url(#SVGID_00000049198668939476881660000016953643768210868915_);}
	.st74{fill:#FA4D56;}
	.st75{fill:#FCF5E6;}
	.st76{opacity:0.17;}
	.st77{fill:#808080;}
	.st78{fill:#F2DACC;}
	.st79{fill-rule:evenodd;clip-rule:evenodd;fill:#F2DACC;}
	.st80{fill-rule:evenodd;clip-rule:evenodd;fill:#845040;}
	.st81{fill-rule:evenodd;clip-rule:evenodd;fill:#ED9945;}
	.st82{fill:#EF6A6A;}
	.st83{fill:#ED9945;}
	.st84{display:none;}
	.st85{display:inline;}
	.st86{opacity:0.11;}
	.st87{fill:#00FFFF;}
</style>
<g id="lower">
</g>
<g id="color_box">
</g>
<g id="Layer_6">
</g>
<g id="preview_box">
</g>
<g id="peeps">
	<g>
		
			<rect x="430.5" y="737.6" transform="matrix(-0.9793 0.2026 -0.2026 -0.9793 1029.7933 1411.9033)" class="st78" width="24.3" height="42.1"/>
		<rect x="299.2" y="737.8" class="st78" width="24.3" height="42.1"/>
		<g>
			<g id="pose_x2F_standing_x2F_crossed_x5F_arms-1">
				<path class="st79" d="M362.9,288.6c-21,5.2-41.3-1.3-55.7-15.4c0.6-0.2,1.2-0.5,1.8-0.7c4.7-1.8,9.4-4,14.3-5.2
					c0.1-0.3-0.2-1.4,0.4-1.3c0.8,0.2,0.6,1.4,0.9,2.2c11.3-9.3,4.1-14.1,11-19.1c7.1-3.7,15.7-3.8,23.5-3c2.9,0.1,5.2,1.4,5.9,4.3
					c2.5,6,8.3,10.4,14.6,11.7c0.5-0.9,2-3.6,2.8-2.8c4.4,0.2,10,1,15.5,2.2C389.8,274.5,377.4,285,362.9,288.6z"/>
				<path class="st80" d="M451.2,764.6c0.3,2,0.3-7,1.7-4.2c1.3,2.5,6.7,1,7.8,2c2.7,4.4,1.5,7.2,3.7,11.6c1.1,1,3.7,3.2,4.5,4.8
					c1.7,1.6,29.7,20,28.6,22.8c0,0,0.1,1.3,0.2,1.6c2.4,13.9-1.6,13.8-14.5,15.8c-18.8,3.3-32.8-3.1-48.7-11.6
					c-5.3-3.6-12.8-10.4-10.3-18.4c0.1-0.5,1.5-9,2.1-13.3c-1-2.3,0.5-3.3,4.5-3c-1-1.1-3.2-15.2-2.4-17c0.5-4.8,1.3,22.4,1.5,17.4
					c-0.3,0,4.4,3.3-1.3,0.9c22.2,17.4,11.4-10.5,22.7-9.9C451.7,770.8,451.2,764.3,451.2,764.6z"/>
				<path class="st80" d="M254.4,806.2c-1.4-5.7,0.7-10.2,6.6-13.6c0.5-1.4,12-5.7,21.1-12.2c8.2-5.8,14.2-13.7,14.4-14.2
					c1.2-2.9,1.9-4.9,2.1-6.2c1-9.3-1.2,10.4-0.5,7.5c-0.5-0.1,0.7,7.5,0,0c8.5,0.2,21,17.2,27.6,9c-0.9,6.1-0.2-1.3-0.4-1.2
					c1.4,7.7-2.1-9.5-2.1-1.9c0.2,0.2,1.2,1.1,1.4,1.3c0-0.1,0.7,0.6,0.7,0.6l0.1-0.2c2.9,6.6,7.2,13.4,3.4,19.9
					c2.8-0.2,2.3,5.2,2.5,7.7c-1.6,4.9-46.9,17.9-57,18.6c-3.3,0.6-18.8-4.3-21.8-5.1C248.5,815.5,252.3,808.3,254.4,806.2z"/>
				<path class="st81" d="M286.8,459.7c-2.7-0.6-5.6-1.2-8.2-2.8c-0.2-0.1,0.1-0.7,0.1-0.8c-6.5-12.8,3.5-56.4,9.8-68.5
					c-5-0.1-11.6-0.8-14.6-5c-1.5-0.5-2.4-1.3-3.1-2.7c-0.8-1.3-1.6-2.6-2.3-4c-3.3-6.9-5.4-14.6-4.3-22.2c-0.2-0.1-1.3-0.1-1.4-0.4
					c-0.1-1.9,0.2-3.5,0.8-5.3c5.7-19.9,12.6-39.5,21.7-58.2c4.3-9.4,28.9-19.1,38-22.6c1.8,31.2,23.2,30.5,39.7,21.2
					c13-7.3,11.3-16.1,19.3-29.2c5.8,1.2,27.2,4.8,31.6,6.1c8.6,2.2,17.2,6.2,19.5,15.5c4.1,16.6-1.7,84.9-12.3,98.1l-1.1,2.6
					c-1.9,1.9-3.5,1.1-6.4,2c0.1,6.1,1.1,11.7,2.1,17.7c2.2,10.9,3.8,21.8,6.3,32.7c0,1.2,4.6,17.9,0.1,14.6c-0.9,0.5-2.1,1-3.1,1.4
					c4.8,11,7,28.7,6.7,42.2c-0.1,8.1,0.2,15.1,2.1,23.4c11.4,59.4,21.6,181.2,24.6,218c-8.9-0.2-17.7-0.7-26.6-1.2
					c-10.6-40.4-47.5-202.5-71.8-213.9c-0.2,1.4,0.2,4-1.7,4.3c-7.3,56.9-23.3,173.7-28.5,207.9c-8.6-0.4-17.1-0.7-25.6-0.9
					C293,677.3,285.3,467.7,286.8,459.7z"/>
				<path id="_xD83D__xDD8D_-Ink_00000004513987065959774510000016885101217866059143_" class="st21" d="M379.4,261.4
					c0.5-0.8,1.1-1.6,1.8-1.9c0.1-0.3,1.2-0.4,1.6,0c10.3,0.6,20.3,3.1,30.2,5.9l1.3,0.4c8.8,2.2,18.1,6.9,20.3,16.5
					c4.2,15.3-2.5,91.2-14,100.6c-1.9,1.8-4.2,3.1-6.6,4c2.4,16.9,6,33.7,9.2,50.4c0.2,2.9,5.3,19-1.1,16.3c-0.5,0.2-1,0.5-1.5,0.7
					c5.9,14.8,6.3,30.9,6.5,46.6l0,5.2c5.6,38.2,13.6,76.2,18.1,114.6c5.5,41,9.9,82.3,12.5,123.6c0.1,1.9-2.1,2.3-3.2,1.2
					c-8.2,2.3-16.8,2.9-25.3,4.2c1.8,4.9,2.5,16,3.7,20.3c0.4,0.8,0.3,1.9-0.4,2.5c2.6,1.8,3.3,5.1,5.9,6.7c0.3-0.5,1-0.7,1.6-0.8
					l0.1,0c1.8-6.4,3.5-14.2,11.7-16.7c-0.6-1.3-0.3-7.8-0.2-9.8l0-0.2c0.5-12.7,4.2,5.3,3.5,9.2c2.5-0.3,6.2,0.2,7,2.3
					c3,4.1,2.6,9.9,6.8,13.2c0.2,0,0.5,0,0.3,0.2c6,4.3,12.6,7.9,18.8,12.1c3.6,2.7,8.2,4.6,10.9,8.1c1.5,2.4,1.5,5.3,0.4,8
					c2.6,13.2-1.2,14.4-14.5,17.2l-0.8,0.2c-19,4.6-34-7.4-49.5-13.7c-3.3-1.7-6.9-2.9-9.8-5.1c-2.7-2.1-4.6-6.4-2-9.5
					c-1.7-3.5,0.6-11.5,1.3-15.7l0-0.3c0.5-2.5,0.7-6.7,4.6-6.8c0.7-4.7-0.4-16.1-0.1-21.4c-3.1,0.2-7.8,1.4-9.5-2
					c-0.6-0.9,0.2-1.9,1.1-2v0l0,0c-0.1,0-0.1,0-0.1,0l0.1,0c-15.1-62.3-24.8-126.1-46.6-186.6c-5-11.7-7.2-26.7-18.3-34.3
					c-0.2,1.3-0.4,2.8-1.6,3.2C344.3,596.7,333.9,665,329,734c-0.7,3.1,0.5,14.2-3.9,13.8c-0.4,0.2-0.9,0.4-1.3,0.5l-0.5,0.1
					c1.2,8.6,1.9,19.7,1.7,27.4c-0.5,2.4-4.9,0.9-4.2-1.5c0.5-7.1-0.2-17.5,0.9-25.4c-6.8,1.3-13.8,1.7-20.7,1.3
					c0.1,4.3-0.2,10.9-1.2,14.6c4.1,1.4,8.1,3.4,11.3,6.3c2.4,2.2,3.8,5.4,6.8,6.9l0.1,0c3.1,1.6,6.7-0.5,7.9-3.1l0,0
					c0.1-0.1,0.3,0,0.3,0.1c-2.4,8.4-10.2,7.4-15.2,0.9c-1.1-1.2-2.1-2.4-3.4-3.4c-3.3-2.3-7-4.1-11.1-5c-2.5,2.4-2.9,6.2-5.2,8.7
					c11.7,5.3,8.3,4.6-0.4,2.5l-1.4-0.4c-1.5,1.6-3.1,3-4.9,4.3c3,1.2,6.2,2.4,8.5,4.6c-3.5-0.2-7.5-2.1-11.2-2.6
					c-1.8,1.2-3.7,2.4-5.5,3.6c11.3,4,5.8,2.5-1.3,1.2l-0.4-0.1c-1.9,1.2-3.9,0.4-5.8,1.6l-0.1,0c-1.9,1.2-4.1,3.4-6.6,2.5
					c-2.7,3.7-5.6,9.7-1.8,13.8c2.5,2.1,6.3,1.6,8.9,3.5c4.9,0.8,9.7-0.7,14.4-1.8l0.4-0.1c5.5-1.3,11-2.8,16.4-4.5
					c6.9-2.8,24.3-6.1,26.1-12.9c0.8-2.6,0.3-3.7,0.1-6.4l0-0.3c-0.2-3-0.5-6.1-0.3-9.1c0-0.2,0.4-0.3,0.5-0.1
					c1.6,2.7,2.5,5.6,3.2,8.5c0.9,4.4,2,7.3-0.2,11.4c4.8,2.1,4.2,8.6,0.7,11.3c-14.1,9-37.5,16.2-55.1,17.3c-3,0.2-6.1-0.7-8.9-1.7
					l-0.4-0.1c-3.5-1-6.9-2-10.3-3.2c-3-0.7-5.3-3.4-4.9-6.2c0.2-2.6,1.5-5.2,3.5-7c-1.3-5.4,1.3-12.3,6.9-14.5
					c1.5-2.5,4.8-1.5,7.2-3.2c-3.8-0.2-3.6-4-0.6-3.4c1.2,0.4,2.3,1.1,3.5,1.6c1.3-0.8,2.7-1.7,4-2.5c-1.5-0.2-3.6-0.7-3.1-2.4
					c1-2.3,5-0.6,7.1-0.2l0.1,0c1.8-1.2,3.5-2.4,5.1-3.8c-6-1-4.6-5.4,2.7-2.5c2.7-2.5,4.4-6,7.7-7.9c-2.7-1.4-1-4,1.8-3.2
					c1.3-3.4,1.7-9.8,2.5-13.8c-4.2-0.6-9.1-0.6-12.7-2.9c-1.1-0.1-2.2-0.9-2.2-2.2c-0.1-3.8,0.2-7.5,0.5-11.2l0.3-2.8
					c0.4-4.7,0.8-9.4,1.2-14.1c6.2-75.2,5.1-150.8-0.8-225.9c-0.6-8.8-1-17.8,0.5-26.6c-1.8-0.6-8.6-1.7-8.1-4.2
					c-5.9-15,2.8-53.4,9.2-68.5c-4.8-0.3-10.5-1.3-13.6-5.2c-3-1.1-4.1-4.6-5.6-7.1c-3.2-6.8-5.3-14.4-4.5-22
					c-3.3-0.9,0.8-10.1,1.2-12.5c5.5-18.3,11.9-36.4,20.2-53.6c3-6.3,8.2-11.3,14.5-14c7.7-3.3,15.3-6.8,23.4-9.2
					c-0.1-1.9,2.6-2.2,3.1-0.5c0.2,0.7,0.4,1.4,0.5,2.1c0.1,0,0.2,0,0.4,0c4-4,4.8-9.4,5.9-14.7l0.1-0.5c3.9,4,0.3,17.5-5.7,18.7
					c3.9,28.2,36.7,21.5,46.7,1c2.2-4,3.6-7.9,5.8-11.9c-6.2,1.3-12.6-2.2-14.9-8.1c-0.5-1-0.9-1.5-1.7-2.1l0,0
					c-1-0.8-0.7-2.6,0.7-2.6C369,250.4,365.2,259.7,379.4,261.4z M287.3,812.8c-6.9,1.4-14.7,4.8-21.7,1.5c-4.4-0.8-9.4-3-11.1-7
					c-0.1,1.4,0,2.9,0.1,4.3l0.1,0.8c-0.2,2,0.7,2.3,2.7,2.7l0.2,0c5.5,1.3,10.8,3.5,16.2,4.8c17.6-1.1,34.8-6.8,50.2-14
					c4.4-1.9,7.1-5.4,5.1-9.9C322.5,804.1,298.4,809.4,287.3,812.8z M428.3,801.4l0.1,0.1c8.1,4.4,17,7.6,25.3,11.7
					c11.4,6.1,22.4,8.4,36,3.9c8.6-1.6,6.8-3.7,8.1-10.1c-9,12.1-25.8,6.3-36.2,1.3c-9.7-4-19.4-7.8-29.4-11.2
					c-2.2,0.6-4.3-0.2-6.3-0.8l-0.2-0.1C424.8,798.2,426.8,800.3,428.3,801.4z M444.1,776.1l-0.1,0.6c-0.3,1.3-0.4,2.8-1.6,3.9
					c-1.1,1-3.4,1.5-4.2,0.3c-4.9,0.4-5.9-4.7-9.6-6.1c0,0.8-0.4,1.8-0.6,2.6c-0.8,4.7-1.8,9.6-1.6,14.2c0.9,1,2.7,1.2,4,1.8
					c2-2.9,24.2,8.2,28.6,9.3c7.9,2.8,15.4,7.5,24.4,7.4c5.9,0.1,14.7-5.3,11.2-11c-1.1-1.5-3.2-2.4-4.8-3.4
					c-2.6-1.7-5.3-3.4-7.9-5.1l-2.2-1.5c-4.2,1.5-8.7,2.8-13.2,3.2c-2.5,0.2-2.5-3.2,0-3.4c3.8-0.3,7.7-0.4,11.5-0.9
					c-1.9-1.3-3.9-2.6-5.8-3.8c-4,0.7-7.9,1.9-11.8,2.9c-1.5,0.2-1.8-1.8-0.3-2.2c3.3-0.7,6.6-1,9.9-1.4l0.9-0.1
					c-2.3-1.5-4.6-3-6.4-4.9c-3.3,1.1-6.7,2.1-10,3.1l-0.5,0.1c-1.2,0.3-3,0.8-3.2-0.6c-0.2-1.2,1.3-1.7,2.5-1.9l2.4-0.5
					c2.6-0.5,5.2-1.1,7.8-1.5c-2.9-4-1.6-9.2-2.1-13.9c-5.2-1.8-12.3,0.9-14.9,5.7C445.2,771.2,444.6,773.7,444.1,776.1z
					 M331.7,387.4c-0.9,2.1-1.5,4.7-3.7,5.9c-3.1,1.7-7-0.8-8.2-3.7c-10.8-0.2-21.4,1.5-32.1,2c-2.3,13.2-5.1,26.2-6.2,39.6
					c-0.9,8.7-2.2,18.2,0.6,26.6c0.2,0.5,0.1,1,0,1.5c1.4,0.2,2.9,0.5,4.3,0.7c0.2-0.5,1-0.4,1,0.2c6.5,1.4,13,2.5,19.6,3.3
					c37.6,4.9,75.8,0.1,111.9-11.1c0.1-0.2,0.4-0.3,0.5-0.2c0.5-0.2,1-0.3,1.5-0.4c0,0,0-0.1,0-0.1l0,0l-0.1-0.8
					c-1.7-17.4-6.7-34.4-8.3-51.8c-0.4-4.1-0.2-8,0.6-12c-6.6,2.1-13.6,2-20.4,2.6c-9.1,0.5-18.2,1.3-27.2,1.5
					c-0.7,1.5-2.9,2-4.4,1.4c-4.4-1.5-3.8-11.2-4.9-15.3c-6.2,0.4-12.6-0.7-18.6-2.2l-0.6-0.2C335.2,379,333.4,383.2,331.7,387.4z
					 M380,263.7l0,0.1c-3,10.9-9.1,21.4-19.2,27c-9.8,6.1-24.2,5.8-31.8-3.5c-4.1-5.2-5.7-11.9-6.6-18.3l-0.1-0.4
					c-9,5.6-19.6,8.4-28.2,14.8c-5.1,4.1-7.7,10.3-10.2,16.2l-0.4,0.9c-7.4,17-12.9,34.8-17.8,52.7l-0.4,1.4c0.4,5,0.9,10,2.4,14.8
					c1.3,5.2,4.5,9.7,6.9,14.3c6.7,4.6,12.5,5,20.5,4c10.5-0.6,21.8-2.4,31.9,0.9c2.3-5.4,4.7-10.7,7-16.1l1.4-3.2
					c3.2-6.9,6.7-14,6.7-21.7c0.3-6-0.4-8.1-6.7-5.6c-11.5,4-23,9.5-35.5,8.6c-6.2,0.2-10.5-5.1-1.2-3.9c1.5-11.9,2.4-23.9,1.2-35.9
					c2,4.8,2.2,11.9,2.4,17.7l0,0.7c-0.1,5.9,0.1,12-1.5,17.7c13.2,0.9,25.6-4.6,38.4-6.4c0.2-0.8,2.4-0.1,2.6,0.3
					c0.6,0.5,1.1,1.3,1.4,2.1c0.3-1.2,2.2-1.2,3.2-1.7c2.8-1.2,5.7-2.2,8.5-3.3c11.3-4.6,23.9-4.8,35.4-0.4c0-0.2,0.2-0.3,0.4-0.2
					c3.2-12.6,5.4-26.9,9.6-38.6c-1.5,13.2-4.2,26.2-6.4,39.2c-1,4.4-1.2,9-2.6,13.2c-0.9,1.7-3.1,0.8-3.3-0.8
					c-7.3,1.5-14.3,3.8-21.3,6.3l-2.9,1c-2.4,2.6-5.2,4.8-8.2,6.7c2.1,4.8,2.7,10.2,4.1,15.2c0.6,2.6,1.1,5.2,1.7,7.7l0,0
					c0.1,0.5,0.3,1.5,0.8,1.6c0.3,0.1,0.5-0.3,0.7-0.4l0,0c0.2-0.1,0.5-0.1,0.6-0.3c1.5-1.5,4.2-1.2,6.1-1.3l6.7-0.4
					c8.6-0.6,17.1-1,25.7-1.4c5.9-0.3,12-1,17.3-3.5c3.7-9.6,5.4-19.9,7.4-29.9l0.2-0.9c3.5-20.9,5.8-42.2,5.1-63.5
					c-0.4-9.9-6.7-15.7-16-18c-11.1-3.7-22.7-6.1-33.9-9.4C381.1,259.8,380.3,262.8,380,263.7z M340.1,372
					c5.2,1.4,10.5,2.1,15.7,3.2c-0.4-3.3-1.1-6.6-1.1-9.9c0-0.1,0-0.2,0-0.3C350.1,367.8,345.2,370.1,340.1,372z M355.8,340.6
					c-3.5,1.2-8.5,4.3-12.2,2.9c2.7,8.6-0.6,17.5-4.1,25.4l-0.2,0.5c4.1-1.5,8.1-3.3,11.9-5.4c3.8-2.1,7.4-4.5,11.2-6.5
					c-2.9-3.7,23-8.3,25.7-8.1c0.8-3.9,1.7-7.7,2.6-11.5c-7.6-1.2-15.5-2.1-23.2-0.6C363.5,337.9,359.6,339.1,355.8,340.6z
					 M415.3,315.4c-1.1,0.8-8.9,13.4-8.7,8.2c2.4-5.3,6.6-9.6,10.9-13.5l0.4-0.3c0.6-0.4,5-4.6,5.1-3.1
					C420.6,309.7,417.7,312.3,415.3,315.4z M296.3,316.6l-0.3-0.1c-0.6-0.3-0.1-1,0.4-0.9c1.3-0.3,4.6,3.8,3.4,3.4
					C299,317.7,297.6,317.2,296.3,316.6z"/>
			</g>
			<path class="st78" d="M390.7,337.9l-2.6,11.5l-10.6,1.5l-9.6,2.6l-4.2,2.1l-1.3,1l0.1,1l-11.2,6.5l-5.7,2.9l-6.2,2.5l2.5-5.5
				l2.4-8.1l0.5-6.7l-1.1-5.6c0,0.8,5.9,0,10.4-2.2c4.2-2.1,7.5-3.3,13.8-4.4c5.9-1,11.8-0.7,16.9,0
				C386.9,337.2,389,337.2,390.7,337.9"/>
			<g id="head_x2F_Bun-2_00000010278407702902351860000012448140987397989003_" transform="translate(78.591549, 38.043053)">
				<path id="_xD83C__xDFA8_-Background_00000171714873061400368130000001928271095345452160_" class="st79" d="M236.1,156
					c0.6-7.3-0.3-14.9,2.5-21.8c4.9-11.4,18.6-15.3,29.2-19.6c4.2-1.3,18.5-1.4,23.5-3.1c11.3-3.8,13.9-8.2,22.9-1.1
					c1.5,1.2,2.5,2.6,3.1,4.4l0,0c0.2,0.8,0,1.5-0.5,2.1c3.9,4,5.5,9.9,3.5,15.2c-6.5,13.7-6.2,21.2-4.1,35.9
					c2.7,13.8-3.5,18.8-13.9,26.3c0.4,0.8,0.5,1.9,0,2.6c-12,16.8-34.5,24.8-53.8,16.3c-7.8-3.5-11.3-11.8-13.3-19.4
					c-2.3-8.4-3-17.3-1.1-25.9C234.8,164,235.8,160.1,236.1,156z"/>
				<path id="_xD83D__xDD8D_-Ink_00000158748328953271252410000013568383252353995931_" class="st21" d="M307.5,78.4l0,0.2
					c0,0.4,0,0.9,0,1.3c1.7,0,3.4,0.2,5,0.5c0.7,0.2,1.4,0.3,2,0.6c0.8,0.1,1.7,0.3,2.5,0.6c0.7,0.3,1.4,0.7,2,1.2
					c1,0.4,1.9,0.9,2.9,1.3l2.3,0.1l0.1,0c0.4,0,0.8,0.1,1.1,0.3c0.7-0.6,1.5-1.1,2.2-1.5c1.4-0.8,2.9-0.2,3.9,1
					c0.6,0.8,1,1.7,1.3,2.6c1,0.3,1.7,1.3,1.8,2.4c2.8,0.3,5.4,1.8,6.8,4.5c0,0.1,0.1,0.2,0.1,0.2c0.9,0.8,1.7,1.8,2.3,2.9
					c1.5,0.4,2.8,1.1,4,2.1c1.9,1.7,2.8,4.7,2,7.1c-0.1,0.3-0.2,0.6-0.4,0.8c1.4,1.6,2.6,3.5,3.3,5.6c0.3,0.7,0.1,1.5-0.3,2.2
					c1,2.4,0.8,5.4-1,7.3c0.2,0.4,0.4,0.8,0.5,1.2c0.1,0.1,0.1,0.2,0.2,0.3c1.5,3,1.6,6.2,0.3,9.2c-0.3,0.8-1.6,1.5-2.4,1.4
					c-1.6-0.2-3.2-0.6-4.7-1c1,0.9,1.8,2,2.5,3.2c1,1.8-0.3,4.3-2.4,4.2c-3-0.1-6-0.8-8.8-2c-0.4,0.3-0.9,0.6-1.4,0.7
					c-0.3,2.2-2.9,3.5-4.7,1.8c-0.7-0.7-1.4-1.3-2.1-2c-0.6,0.8-1.5,1.4-2.4,1.3c-0.5-0.1-0.9-0.1-1.4-0.1c0.3,0.3,0.6,0.7,0.9,1.1
					c0.6,0.9-0.4,2-1.3,1.7c-1.3-0.3-2.5-0.8-3.7-1.4c-0.1,0.1-0.2,0.1-0.3,0.2c0.2,0.4,0.4,0.9,0.4,1.5l0,0c0.2,0,0.4-0.1,0.6-0.1
					c1.8,0,3.4,1.6,3.4,3.4c0,0.4-0.1,0.8-0.2,1.2c0.6,2.4,0.7,5-0.1,7.1c0.1,0.3,0.1,0.6,0,0.8c0.5,0.5,0.8,1.3,0.9,2.1
					c0.1,1.4-0.5,2.5-1.5,3.4c0,0.1-0.1,0.3-0.2,0.4c0,0.1,0,0.1,0,0.2c0.9,1.1,1.1,2.8,0.2,4.2c0,0.1-0.1,0.1-0.1,0.2
					c0,0.4-0.1,0.8-0.3,1.2c0.1,0.2,0.2,0.4,0.2,0.6c0.1,0.6,0.2,1.3,0.1,1.9c-0.1,0.8-0.4,1.6-0.8,2.2l0,0.2c0.1,0.3,0.1,0.7,0,1.2
					c0.1,0,0.1,0.1,0.2,0.1c2-0.8,4.5-0.4,5.9,1.2c1.4,1.6,0.5,4.2-1.8,4.2c-1,0-1.9-0.1-2.9-0.4l-0.3,0.2c-0.8,0.5-1.7,0.9-2.6,0.8
					c0,0.4-0.1,0.7-0.1,1.1c-0.1,1.3-0.4,2.6-1,3.7c1.3,1.6,2.5,3.4,3.9,4.8c1.3,1.3-0.4,3.7-2,2.6l-0.2-0.1
					c-1.8-1.2-3.9-1.8-5.6-3.2c-0.6,0.4-1.2,0.8-1.8,1.2c0.1,0.1,0.2,0.3,0.3,0.4l0.1,0.2c0.5,0.8,1.1,1.6,1.8,2.3
					c1.3,1.4,3,2.3,4.4,3.6c0.5,0.5,0,1.3-0.7,1.1c-2-0.4-3.7-2-4.9-3.6l-0.1-0.2c-0.7-0.8-1.2-1.7-1.6-2.7
					c-0.1-0.1-0.2-0.2-0.3-0.3c-0.3,0.3-0.7,0.6-1,0.9c-0.6,1-1.3,1.9-1.9,2.8c-0.2,0.4-0.7,0.6-1.1,0.7c-0.8,1.1-1.5,2.2-2,3.4
					c-0.8,1.6-3.6,0.5-3-1.3l0.2-0.6c-0.1-0.1-0.2-0.3-0.3-0.4c-0.2,0.5-0.5,0.9-0.8,1.3c-2,3-4.8,6.3-8.6,6.4
					c-1.2,0-2.1-1.4-1.4-2.5c0.8-1.3,1.9-2.2,3-3.1l0.5-0.4c1.2-1,2.4-2,3.4-3.2c1-1.1,2-2.3,2.9-3.5c0.2-0.2,0.7-1.1,1.2-1.8
					c-0.7-0.4-1-1-1.4-1.8c-0.5-0.9,0.4-1.8,1.3-1.3c0.4,0.2,0.9,0.2,1.3,0.4c0.3,0.1,0.6,0.2,0.9,0.3c0.7,0.2,1.5,0.2,2.2,0.1
					c1.6-0.3,2.9-1.3,4-2.5c2.2-2.6,3.4-6.6,2.8-10c-0.6-3.2-3-6-6.2-6.6c-3-0.6-6.5,1.7-7.1,4.7c0,0.2-0.4,0.2-0.4-0.1
					c-0.1-0.9,0-1.7,0.3-2.5c-1.1,0.7-2.3,1.2-3.5,1.3c0,0-0.1,0-0.1,0c-0.8,0.3-1.6,0.4-2.3,0.4c-0.3,0-0.6-0.3-0.6-0.6
					c0.1-6.2,1.4-12.4,3.2-18.4l-0.7,0.6c-1.1,1-2.3,2.2-3.7,2.6c-2.8,0.8-4.4-1.6-4.2-4.1c0.1-1.3,0.5-2.6,0.9-3.8l0.1-0.4
					c0.5-1.8,1-3.5,1.6-5.3c0-0.1,0-0.1,0-0.2c-1.9,1-4.3,1.7-6,0.1c-1-1-1.3-2.4-1.4-3.8l0-0.3c-0.1-0.7-0.1-1.5-0.1-2.2
					c-1.3,1.4-2.8,2.6-4.6,3.4c-3.1,1.3-6.5,0.7-8.9-1.6c0,0-0.1-0.1-0.1-0.1c-0.7,0.2-1.5,0.3-2.2,0.4c-2.8,0.4-5.8,0.9-8.7,0.8
					c-2.6,0-5.3-0.5-7.4-2c-1.4-1-2.6-2.4-3.2-4l-0.1,0l0,0.1c0.2,0.6,0.1,1.2-0.4,1.8c-0.5,0.5-1.2,0.8-1.9,0.7
					c-0.1,0.2-0.3,0.5-0.6,0.7c-0.6,0.5-1.2,0.9-1.9,1.2c-1.5,0.7-3.1,0.8-4.7,0.5c-0.2,0-0.4-0.1-0.6-0.3c-0.8,1.6-1.4,3.2-1.9,4.9
					c-0.2,0.6-0.3,1.3-0.5,1.9c-0.1,1.6-0.2,3.3-0.3,4.9l-0.1,1.4c-0.2,4.1-0.1,8.2-0.3,12.4c-0.1,4.2-0.6,8.4-0.8,12.7
					c-1.2,29.8,10.5,36.7,24.3,38.5c5.9,0.8,12.4-1,16-2.2c2.1-0.7,3.2,1.7,0.2,2.9c-3,1.2-9,3.3-16.2,2.9
					c-13.7-0.8-25-11.1-27.5-24.7c-1.5-7.8-0.6-16-0.1-23.9l0-0.7c0-0.7,0.1-1.5,0.1-2.2c-0.6,0.8-1.4,1.4-2.2,1.8
					c-2.1,1-4.9,1-6.1-1.2c-0.4-0.7,0.3-1.8,1.1-1.5c1.3,0.5,2.8,0.9,4.2,0.5c1-0.3,2.4-1.1,3.1-2.1c0.1-2.6,0.3-5.1,0.5-7.7
					c0.2-1.8,0.3-3.6,0.6-5.4c-0.6,0-1.2-0.4-1.3-1.1c-0.2-1.1-0.2-2.1-0.4-3.2c-0.1-0.8-0.4-1.5-0.2-2.4c0.1-0.6,0.3-1.2,0.4-1.8
					c0.6-2.4,1.6-4.7,2.7-6.9c0.8-1.6,1.8-3.2,2.8-4.8c0.6-1.4,1.5-2.7,2.4-3.9l0.2-0.3l-0.1-0.5l0-0.1c-0.2-1.3,0.2-2.4,1.3-3.1
					c2.9-1.8,5.7-3.7,8.6-5.5c1.2-0.8,2.7-1.4,4.1-1.4c1.3-1.7,3.3-2.8,5.7-3.2c1.9-0.3,3.7-0.3,5.6-0.8c1.7-0.4,3.4-1,5.2-1.3
					c2.7-0.5,5.8-0.5,8.4,0.8c2.1,0,4.2,0.2,6.3,0.5c0.7-0.9,1.5-1.7,2.4-2.5c-0.1-0.1-0.2-0.3-0.3-0.4c-0.6,0.2-1.3,0.1-2-0.3
					c-2.2-1.4-3.6-3.6-3.5-6.3c0.1-1.1,0.7-1.9,1.5-2.3c-0.3-0.9-0.6-1.8-1.1-2.6c-0.4-0.6-0.7-1.2-1.1-1.8
					c-1.7-3.2,2.9-5.9,4.9-2.8c0.3,0.5,0.7,1,1,1.6c0.4,0.6,0.9,1.2,1.4,1.7l-0.2-2.5l0-0.1c0-0.9,0.6-1.8,1.3-2.3l-0.4-1.8
					c-0.6-2.7-1.6-5.8,0-8.4c2.3-3.6,7.5-4.1,11.1-2.3c0.2-0.4,0.4-0.8,0.6-1.3l0-0.1c0.5-1.3,1.6-2.2,3.1-2
					C306.4,75.8,307.5,76.9,307.5,78.4z M306.6,190.8c0.2-0.1,0.4-0.2,0.6-0.3c0.1-0.2,0.1-0.3,0.2-0.5c-0.2,0-0.5-0.1-0.7-0.1
					C306.7,190.2,306.7,190.5,306.6,190.8z M318.2,186.6c0,0-0.1,0-0.1,0l0,0c0.3,0,0.7,0,1,0c0,0,0-0.1-0.1-0.1l-0.2-0.3
					C318.6,186.4,318.4,186.5,318.2,186.6z M312.3,173.1c0.3,0,0.3,0.4,0.1,0.5c-1.6,0.9-3.3,2.1-4.6,3.4c-1.3,1.2-2.5,3.2-4.4,3.4
					c-0.7,0-1.2-0.6-1.2-1.2c-0.2-2.2,2.5-3.7,4.2-4.6l0.2-0.1C308.4,173.5,310.2,173.2,312.3,173.1L312.3,173.1z M321.8,144.1
					C322.1,144.5,322.2,144,321.8,144.1C321.8,144,321.8,144.1,321.8,144.1z M291.7,113.2c3.6,1.2,7.1,3,10.1,5.3
					c4,3.1,7.4,6.7,10.5,10.7c1.1,1.5,2.1,3,3.1,4.5l0,0c0.3,0.9,0.7,1.8,1.2,2.6c0.1-0.1,0.3-0.2,0.5-0.3c0.6-0.1,1.2-0.5,1.6-0.9
					c-0.1-0.4-0.2-0.8-0.4-1.1l-0.1-0.3c-0.2-1.1-0.4-2.2-0.7-3.2c-0.4-1.6-1-3.2-1.6-4.8c-2.4-3.2-5-6.1-8.1-8.5
					c-3.5-2.8-8.3-5.6-13.1-5.8C293.6,112,292.6,112.5,291.7,113.2z"/>
			</g>
			<g id="face_x2F_Smiling_00000010311811351255799290000003023172430991385744_" transform="translate(112.183099, 77.354207)">
				<path id="_xD83D__xDD8D_-Ink_00000153700640312554154150000014623472683167654556_" class="st21" d="M224.2,160
					c-1.5,0.6-3.3,0.9-4.9,0.5c-1.5-0.3-3.1-1.1-4.4-2.2c-1.1-1-1.9-2.4-2-3.8c0-0.2,0-0.4,0.2-0.6c0.1-0.2,0.3-0.3,0.5-0.4
					c0.2-0.1,0.4-0.1,0.6,0c0.2,0.1,0.3,0.2,0.4,0.3c0.2,0.2,0.4,0.4,0.5,0.6c1.4,1.4,2.8,2.5,4.7,2.7c1,0.1,2-0.1,2.9-0.5
					c0.9-0.4,1.7-1.1,2.3-2l0.1-0.1c0.3-0.5,0.8-0.7,1.2-0.8c0.5-0.1,1,0.1,1.5,0.4c0.4,0.3,0.7,0.8,0.8,1.3c0.1,0.5,0,1-0.4,1.4
					C227.2,158.2,225.8,159.3,224.2,160L224.2,160z M217.6,135.9c-9.1,1.6-4.4,17.2,7.2,8.6c1.4-1.1-0.3-3.6-1.8-2.6
					c-1.6,1.2-4.9,3.9-7.1,1.6c-1.9-2.7,0.8-5.2,2.6-6.3C218.9,136.8,218.6,135.7,217.6,135.9z M239.4,132c-0.2,1.7-2.5,2.6-3.5,0.7
					c-1-2-1.4-3.9-1-6.1c0.4-2.4,4.1-1.9,4.3,0.6C239.3,128.7,239.6,129.7,239.4,132z M211,126.3c1.6,1.5,1,4.5-0.3,6
					c-0.8,0.9-2.5,0.7-3-0.4c-1-1.9-1.8-5.9,1-6.7c0.9-0.3,1.6,0.2,2.2,0.9C210.9,126.2,211,126.3,211,126.3z M240.1,117.9
					c2.4,1.2,4.9,3.2,6.1,5.7c0.1,0.3-0.2,0.6-0.4,0.4c-2.2-1.5-4.2-2.8-6.8-3.5c-1.2-0.3-2.3-0.5-3.5-0.6c-1.5-0.1-2.8,0.3-4-0.7
					c-0.7-0.6-0.5-1.6,0-2.2c1-1.1,2.7-0.9,4-0.6l0.4,0.1C237.4,116.7,238.8,117.3,240.1,117.9z M214.6,115.5
					c0.3,0.1,0.6,0.4,0.9,0.7c0.3,0.5,0.3,0.9,0.2,1.4c-0.1,0.4-0.3,0.7-0.6,0.9c-0.3,0.2-0.7,0.4-1.1,0.4c-1.8,0.2-3.7,0.6-5.4,1.2
					c-0.8,0.3-1.6,0.6-2.4,1l-0.7,0.3c-0.6,0.3-1.2,0.6-2,0.8c-0.1,0-0.1,0-0.2,0c-0.2-0.1-0.3-0.2-0.3-0.2l0,0
					c-0.1-0.1-0.1-0.2-0.1-0.7c1.7-3.6,6.5-5.2,10.2-5.9l0.3-0.1C213.8,115.3,214.2,115.3,214.6,115.5z"/>
			</g>
			
				<g id="facial-hair_x2F_Full_00000108995758707650741860000013821067765065162641_" transform="translate(104.577451, 109.479380)">
				<path id="_xD83D__xDD8D_-Ink_00000141445056620872213900000005635474448411224232_" class="st21" d="M247.1,129.3
					c0.1,1,0.1,2-0.1,2.9c-4.1,2.9-9.1,4.4-14.1,3.8c-1.6-1.9-3.3-5.2-5.9-5.6c-2.9-0.4-4.6,2.7-6.9,4.1c-0.1,0.1-0.3,0.1-0.4,0.2
					c-1.5-0.1-3-0.5-4.3-1.3c-1.3-0.9-1.8-2.1-2-3.4c0.1-0.3,0.1-0.5,0.2-0.8c0.5-1.8,1.3-3.6,2.4-5.2c0.9-1.3,2.2-2.5,3.7-3.1
					c1.8-0.7,3.8-0.8,5.7-1c3.6-0.3,7.3-0.4,10.8,0.5C241,121.5,245.2,124.8,247.1,129.3 M210,125.9c-0.2,0.5-1.6,6.2-0.7,9.5
					c0.9,3.2,2.4,6.1,4.4,8.8c1.8,2.4,4.1,4.4,6.9,5.5c3.7,1.4,8.1,1,11.9,0.7c4.8-0.5,9.5-1.5,14.1-3.1c2.3-0.8,4.5-1.7,6.7-2.6
					c2.2-0.9,4.5-1.9,6.5-3.1c1.7-1.1,3.2-2.7,4.7-4.1c2.3-2.3,4.5-4.6,6.4-7.1c1.8-2.4,3.2-4.6,3.6-7.5c0.8-5-0.1-10.3-0.7-15.3
					c0-0.2-0.3-0.2-0.3-0.1c0-0.1,0-0.2,0-0.3c0-0.4-0.5-0.4-0.6-0.1c-1.2,4.1-3.3,7.8-6.2,11c-4,4.3-9.1,7.4-14.1,10.5
					c-0.2-0.2-0.4-0.3-0.6-0.3c-0.7-3.2-3.1-6.2-5.4-8.3c-6.9-6-17.9-8.6-26.4-4.9c-3.6,1.5-6.6,4.2-8.6,7.6
					C210.9,123.7,210.4,124.8,210,125.9"/>
			</g>
			
				<g id="accessories_x2F_Glasses_00000089556495489032161010000000908791781345187984_" transform="translate(88.521127, 88.978474)">
				<path id="_xD83D__xDD8D_-Ink_00000182521176302513849500000004369492219882643099_" class="st21" d="M220.6,120.2
					c-0.7-4.2-0.8-9.3,5.3-9.1c3.2,0,6.4,0.1,9.2,1.8c2.7,1.6,3.6,4.8,3.6,7.7c-0.1,0.7,0.2,1,0.6,1.2
					C236.7,135.3,222.6,133.8,220.6,120.2 M241.4,114.2c-0.7,0-1.5,0-2.2,0.3c-0.7-1.3-1.7-2.4-2.8-3.2c4.6,0.4,9.3,0.8,13.9,0.7
					c-1.2,0.7-2.5,2.1-2.9,3.3C245.7,114.2,243.3,114.1,241.4,114.2 M249.8,121.6c-2.9-7.4,2.1-9.5,9.1-9.6
					c3.8,0.1,8.4-0.5,11.6,1.7c2.3,2.5,1.8,11.9-0.8,15.8C268.3,131.9,255.1,139.8,249.8,121.6 M214.3,113.2
					c-2.9,1.4,3.3,2.9,4.1,1.5c-0.7,5.4,1.4,14.3,7.3,17.1c6.9,3.4,14.4-1.8,14.1-10c1.5-0.4,0.5-4.5-0.1-6.2
					c2.6-0.4,5.1-0.6,7.6,0.2c-1.4,3.9,3.5,15.6,8.3,18c3.7,2.5,11.9,1.4,15.2-2.5c2.3-3,3.5-10,2.2-14.8c0,0,0,0,0,0
					c0.1,0.8,5.3,0.7,5.1-0.6c7.6,0.1,14.9,1.3,22.4,2.1c1.7,0.2,0.4,2.2,1.6,2.6c2.2,0.1,1.2-3.8-0.7-4.2
					c-7.8-0.8-15.7-2.6-23.4-1.3c-1.1-1.3-3.2-0.4-4.4-0.2c-1-5.9-17-5.5-22.3-3.1c-5.7-0.7-11.6-1-17.2-1.5
					c-3.6-1.1-7.7-1.7-11.4-0.6c-0.6,0-0.6,0.1-0.8,0.3c-1.5,0.6-2.8,2.1-3.2,3.9C217.3,113,215.8,113,214.3,113.2"/>
			</g>
			<path class="st79" d="M355.8,374.6l-0.2-1.4l-0.5-3.3l-0.3-2.7l-0.1-2.2c0,0-1.8,1.1-4.2,2.3c-2,1-4.4,2.1-6.4,3
				c-0.2,0.1-0.3,0.1-0.5,0.2c0,0-0.1,0-0.1,0c0,0,0,0-0.1,0c-0.2,0-0.3,0.2-0.5,0.2c-0.6,0.2-1.1,0.5-1.6,0.6
				c-0.6,0.2-1,0.5-1.3,0.5l5.7,1.3l10.1,1.9L355.8,374.6z"/>
		</g>
	</g>
</g>
<g id="text_00000181063066646097621940000005786975940200991156_">
</g>
<g id="Layer_1" class="st84">
</g>
</svg>
